<mxfile modified="2020-12-18T11:46:35.146Z" host="app.diagrams.net" agent="5.0 (Macintosh; Intel Mac OS X 10_15_7) AppleWebKit/537.36 (KHTML, like Gecko) Chrome/87.0.4280.88 Safari/537.36" etag="4MdL0tWMeSJc5ki3KOQT" version="14.0.5" type="github">
  <diagram id="f106602c-feb2-e66a-4537-3a34d633f6aa" name="Page-1">
    <mxGraphModel dx="946" dy="556" grid="1" gridSize="10" guides="1" tooltips="1" connect="1" arrows="1" fold="1" page="1" pageScale="1" pageWidth="1169" pageHeight="827" background="#ffffff" math="0" shadow="0">
      <root>
        <mxCell id="0" />
        <mxCell id="1" parent="0" />
        <mxCell id="MhyTX6PZLcGCUAYYix8S-719" value="&lt;font color=&quot;#000000&quot;&gt;Data Source Group&lt;br&gt;&lt;br&gt;&lt;br&gt;1. Recipe Users&lt;br&gt;2. User States (need to define them)&lt;br&gt;3. Recipes&amp;nbsp;&lt;br&gt;4. Recipe Contributors&lt;/font&gt;" style="points=[[0,0,0],[0.25,0,0],[0.5,0,0],[0.75,0,0],[1,0,0],[1,0.25,0],[1,0.5,0],[1,0.75,0],[1,1,0],[0.75,1,0],[0.5,1,0],[0.25,1,0],[0,1,0],[0,0.75,0],[0,0.5,0],[0,0.25,0]];rounded=1;absoluteArcSize=1;arcSize=2;html=1;strokeColor=#b85450;shadow=0;dashed=0;fontSize=12;align=left;verticalAlign=top;spacing=10;spacingTop=-4;fillColor=#f8cecc;" vertex="1" parent="1">
          <mxGeometry x="20" y="130" width="210" height="150" as="geometry" />
        </mxCell>
        <mxCell id="MhyTX6PZLcGCUAYYix8S-721" value="Bucket" style="outlineConnect=0;dashed=0;verticalLabelPosition=bottom;verticalAlign=top;align=center;html=1;shape=mxgraph.aws3.bucket;fillColor=#E05243;gradientColor=none;" vertex="1" parent="1">
          <mxGeometry x="330" y="150" width="60" height="70" as="geometry" />
        </mxCell>
        <mxCell id="MhyTX6PZLcGCUAYYix8S-722" value="" style="edgeStyle=orthogonalEdgeStyle;fontSize=12;html=1;endArrow=blockThin;endFill=1;rounded=0;strokeWidth=2;endSize=4;startSize=4;dashed=0;strokeColor=#FF3333;" edge="1" parent="1">
          <mxGeometry width="100" relative="1" as="geometry">
            <mxPoint x="230" y="190" as="sourcePoint" />
            <mxPoint x="340" y="190" as="targetPoint" />
          </mxGeometry>
        </mxCell>
        <mxCell id="MhyTX6PZLcGCUAYYix8S-723" value="" style="strokeColor=#dddddd;shadow=1;strokeWidth=1;rounded=1;absoluteArcSize=1;arcSize=2;" vertex="1" parent="1">
          <mxGeometry x="320" y="70" width="160" height="44" as="geometry" />
        </mxCell>
        <mxCell id="MhyTX6PZLcGCUAYYix8S-724" value="Event from messages" style="dashed=0;connectable=0;html=1;fillColor=#757575;strokeColor=none;shape=mxgraph.gcp2.bucket;part=1;labelPosition=right;verticalLabelPosition=middle;align=left;verticalAlign=middle;spacingLeft=5;fontSize=12;" vertex="1" parent="MhyTX6PZLcGCUAYYix8S-723">
          <mxGeometry y="0.5" width="32" height="32" relative="1" as="geometry">
            <mxPoint x="5" y="-16" as="offset" />
          </mxGeometry>
        </mxCell>
        <mxCell id="MhyTX6PZLcGCUAYYix8S-725" value="" style="edgeStyle=orthogonalEdgeStyle;fontSize=12;html=1;endArrow=blockThin;endFill=1;rounded=0;strokeWidth=2;endSize=4;startSize=4;dashed=0;strokeColor=#FF3333;" edge="1" parent="1">
          <mxGeometry width="100" relative="1" as="geometry">
            <mxPoint x="390" y="190" as="sourcePoint" />
            <mxPoint x="530" y="190" as="targetPoint" />
          </mxGeometry>
        </mxCell>
        <mxCell id="MhyTX6PZLcGCUAYYix8S-727" value="Prioritization&amp;nbsp;&lt;br&gt;Layer for&amp;nbsp;&lt;br&gt;recos" style="rounded=1;whiteSpace=wrap;html=1;strokeColor=#b85450;direction=south;fillColor=#f8cecc;" vertex="1" parent="1">
          <mxGeometry x="620" y="45" width="70" height="320" as="geometry" />
        </mxCell>
        <mxCell id="MhyTX6PZLcGCUAYYix8S-728" value="Recos&lt;br&gt;(Amazon SNS)" style="rounded=1;whiteSpace=wrap;html=1;strokeColor=#b85450;direction=south;fillColor=#f8cecc;" vertex="1" parent="1">
          <mxGeometry x="530" y="45" width="70" height="320" as="geometry" />
        </mxCell>
        <mxCell id="MhyTX6PZLcGCUAYYix8S-730" value="" style="edgeStyle=orthogonalEdgeStyle;fontSize=12;html=1;endArrow=blockThin;endFill=1;rounded=0;strokeWidth=2;endSize=4;startSize=4;dashed=0;strokeColor=#9E9E9E;" edge="1" parent="1">
          <mxGeometry width="100" relative="1" as="geometry">
            <mxPoint x="600" y="190" as="sourcePoint" />
            <mxPoint x="620" y="190" as="targetPoint" />
          </mxGeometry>
        </mxCell>
        <mxCell id="MhyTX6PZLcGCUAYYix8S-731" value="Recos based on User and contributors interaction" style="shape=ext;double=1;rounded=1;whiteSpace=wrap;html=1;strokeColor=#b85450;direction=south;fillColor=#f8cecc;" vertex="1" parent="1">
          <mxGeometry x="710" y="160" width="80" height="120" as="geometry" />
        </mxCell>
        <mxCell id="MhyTX6PZLcGCUAYYix8S-732" value="Recos based on User behaviour" style="shape=ext;double=1;rounded=1;whiteSpace=wrap;html=1;strokeColor=#b85450;direction=south;fillColor=#f8cecc;" vertex="1" parent="1">
          <mxGeometry x="710" y="10" width="80" height="120" as="geometry" />
        </mxCell>
        <mxCell id="MhyTX6PZLcGCUAYYix8S-733" value="Recos based on current state of user" style="shape=ext;double=1;rounded=1;whiteSpace=wrap;html=1;strokeColor=#b85450;direction=south;fillColor=#f8cecc;" vertex="1" parent="1">
          <mxGeometry x="710" y="300" width="80" height="120" as="geometry" />
        </mxCell>
        <mxCell id="MhyTX6PZLcGCUAYYix8S-734" value="" style="edgeStyle=orthogonalEdgeStyle;fontSize=12;html=1;endArrow=blockThin;endFill=1;rounded=0;strokeWidth=2;endSize=4;startSize=4;dashed=0;strokeColor=#9E9E9E;exitX=0.541;exitY=0.014;exitDx=0;exitDy=0;exitPerimeter=0;" edge="1" parent="1" source="MhyTX6PZLcGCUAYYix8S-727">
          <mxGeometry width="100" relative="1" as="geometry">
            <mxPoint x="610" y="211.5" as="sourcePoint" />
            <mxPoint x="710" y="211.5" as="targetPoint" />
          </mxGeometry>
        </mxCell>
        <mxCell id="MhyTX6PZLcGCUAYYix8S-735" value="" style="edgeStyle=orthogonalEdgeStyle;fontSize=12;html=1;endArrow=blockThin;endFill=1;rounded=0;strokeWidth=2;endSize=4;startSize=4;dashed=0;strokeColor=#9E9E9E;" edge="1" parent="1">
          <mxGeometry width="100" relative="1" as="geometry">
            <mxPoint x="690" y="80" as="sourcePoint" />
            <mxPoint x="710" y="80" as="targetPoint" />
          </mxGeometry>
        </mxCell>
        <mxCell id="MhyTX6PZLcGCUAYYix8S-738" value="" style="edgeStyle=orthogonalEdgeStyle;fontSize=12;html=1;endArrow=blockThin;endFill=1;rounded=0;strokeWidth=2;endSize=4;startSize=4;dashed=0;strokeColor=#9E9E9E;" edge="1" parent="1">
          <mxGeometry width="100" relative="1" as="geometry">
            <mxPoint x="690" y="340" as="sourcePoint" />
            <mxPoint x="710" y="340" as="targetPoint" />
          </mxGeometry>
        </mxCell>
        <mxCell id="MhyTX6PZLcGCUAYYix8S-740" value="&lt;font style=&quot;font-size: 17px&quot;&gt;Content Box&lt;/font&gt;" style="shape=image;html=1;verticalAlign=top;verticalLabelPosition=bottom;labelBackgroundColor=#ffffff;imageAspect=0;aspect=fixed;image=https://cdn3.iconfinder.com/data/icons/quartz/Box_content.png;strokeColor=#FF3333;imageBorder=#000000;" vertex="1" parent="1">
          <mxGeometry x="850" y="80" width="235" height="235" as="geometry" />
        </mxCell>
        <mxCell id="MhyTX6PZLcGCUAYYix8S-741" value="" style="edgeStyle=orthogonalEdgeStyle;fontSize=12;html=1;endArrow=blockThin;endFill=1;rounded=0;strokeWidth=2;endSize=4;startSize=4;strokeColor=#EA4335;dashed=0;exitX=0.5;exitY=0;exitDx=0;exitDy=0;" edge="1" parent="1" source="MhyTX6PZLcGCUAYYix8S-732" target="MhyTX6PZLcGCUAYYix8S-740">
          <mxGeometry width="100" relative="1" as="geometry">
            <mxPoint x="750" y="220" as="sourcePoint" />
            <mxPoint x="850" y="220" as="targetPoint" />
          </mxGeometry>
        </mxCell>
        <mxCell id="MhyTX6PZLcGCUAYYix8S-742" value="" style="edgeStyle=orthogonalEdgeStyle;fontSize=12;html=1;endArrow=blockThin;endFill=1;rounded=0;strokeWidth=2;endSize=4;startSize=4;strokeColor=#EA4335;dashed=0;" edge="1" parent="1">
          <mxGeometry width="100" relative="1" as="geometry">
            <mxPoint x="790" y="220" as="sourcePoint" />
            <mxPoint x="820" y="220" as="targetPoint" />
          </mxGeometry>
        </mxCell>
        <mxCell id="MhyTX6PZLcGCUAYYix8S-743" value="" style="edgeStyle=orthogonalEdgeStyle;fontSize=12;html=1;endArrow=blockThin;endFill=1;rounded=0;strokeWidth=2;endSize=4;startSize=4;strokeColor=#EA4335;dashed=0;" edge="1" parent="1" target="MhyTX6PZLcGCUAYYix8S-740">
          <mxGeometry width="100" relative="1" as="geometry">
            <mxPoint x="790" y="360" as="sourcePoint" />
            <mxPoint x="890" y="360" as="targetPoint" />
            <Array as="points">
              <mxPoint x="820" y="360" />
              <mxPoint x="820" y="198" />
            </Array>
          </mxGeometry>
        </mxCell>
        <mxCell id="MhyTX6PZLcGCUAYYix8S-745" value="Rendering to the App or user account or mail" style="shape=ext;double=1;rounded=1;whiteSpace=wrap;html=1;strokeColor=#b85450;direction=south;fillColor=#f8cecc;" vertex="1" parent="1">
          <mxGeometry x="1150" y="137.5" width="80" height="120" as="geometry" />
        </mxCell>
        <mxCell id="MhyTX6PZLcGCUAYYix8S-746" value="" style="edgeStyle=orthogonalEdgeStyle;fontSize=12;html=1;endArrow=blockThin;endFill=1;rounded=0;strokeWidth=2;endSize=4;startSize=4;strokeColor=#EA4335;dashed=0;" edge="1" parent="1" source="MhyTX6PZLcGCUAYYix8S-740">
          <mxGeometry width="100" relative="1" as="geometry">
            <mxPoint x="1085" y="197.5" as="sourcePoint" />
            <mxPoint x="1150" y="198" as="targetPoint" />
          </mxGeometry>
        </mxCell>
        <mxCell id="MhyTX6PZLcGCUAYYix8S-748" value="" style="edgeStyle=orthogonalEdgeStyle;fontSize=12;html=1;endArrow=blockThin;endFill=1;rounded=0;strokeWidth=2;endSize=4;startSize=4;strokeColor=#EA4335;dashed=0;entryX=0.567;entryY=1.027;entryDx=0;entryDy=0;entryPerimeter=0;" edge="1" parent="1" target="MhyTX6PZLcGCUAYYix8S-719">
          <mxGeometry width="100" relative="1" as="geometry">
            <mxPoint x="1190" y="260" as="sourcePoint" />
            <mxPoint x="490" y="470" as="targetPoint" />
            <Array as="points">
              <mxPoint x="1190" y="460" />
              <mxPoint x="140" y="460" />
              <mxPoint x="140" y="470" />
            </Array>
          </mxGeometry>
        </mxCell>
        <mxCell id="MhyTX6PZLcGCUAYYix8S-749" value="State Feedback Update" style="text;html=1;align=center;verticalAlign=middle;resizable=0;points=[];autosize=1;" vertex="1" parent="1">
          <mxGeometry x="170" y="430" width="140" height="20" as="geometry" />
        </mxCell>
      </root>
    </mxGraphModel>
  </diagram>
</mxfile>
